# xmcd
#
# Track frame offsets:
#	150
#	20735
#	42053
#	60463
#	78695
#	96200
#	118137
#	144710
#	164065
#	178718
#	220958
#	244855
#	272600
#	288875
#	299393
#	318832
#
# Disc length: 4502 seconds
# Revision: 0
# Processed by: cddbd v1.5.2PL0 Copyright (c) Steve Scherf et al.
# Submitted via: dBpowerAMP V12.0
#
DISCID=f4119410
DTITLE=Joseph Arthur - Redemption's Son
DYEAR=2002
DGENRE=Rock
TTITLE0=Redemption's Son
TTITLE1=Honey and the Moon
TTITLE2=Dear Lord
TTITLE3=I Would Rather Hide
TTITLE4=Innocent World
TTITLE5=September Baby
TTITLE6=Nation of Slaves
TTITLE7=Evidence
TTITLE8=Let's Embrace
TTITLE9=Termite Song
TTITLE10=Permission
TTITLE11=Favorite Girl
TTITLE12=You Are the Dark
TTITLE13=In the Night
TTITLE14=Blue Lips
TTITLE15=You've Been Loved
EXTD=
EXTT0=
EXTT1=
EXTT2=
EXTT3=
EXTT4=
EXTT5=
EXTT6=
EXTT7=
EXTT8=
EXTT9=
EXTT10=
EXTT11=
EXTT12=
EXTT13=
EXTT14=
EXTT15=
PLAYORDER=
